<svg xmlns="http://www.w3.org/2000/svg" viewBox="0 0 100 100" width="1000" height="1000" role="img" aria-label="Caelestis, Le Portable"><title>Caelestis, Le Portable</title>
  <rect width="100" height="100" rx="24" fill="#255C41"/><g transform="translate(3.571 12.857) scale(0.92857)"><path fill-rule="evenodd" fill="#FCFBF8" d="M18 18A6 6 0 0 1 24 12L76 12A6 6 0 0 1 82 18L82 46A6 6 0 0 1 76 52L24 52A6 6 0 0 1 18 46Z M47.6 48.4L48.08 30L51.92 30L52.4 48.4Z M50 30A11.233 11.233 0 0 1 60.457 13.898A16.86 16.86 0 0 1 50 30Z M50 30A11.233 11.233 0 0 0 39.543 13.898A16.86 16.86 0 0 0 50 30Z"/><rect x="8" y="56" width="84" height="12" rx="6" fill="#FCFBF8"/></g>
</svg>
