<svg xmlns="http://www.w3.org/2000/svg" viewBox="0 0 100 100" width="1000" height="1000" role="img" aria-label="Caelestis, La Cadrée"><title>Caelestis, La Cadrée</title>
  <rect width="100" height="100" rx="24" fill="#255C41"/><g transform="translate(9.551 9.551) scale(0.80899)"><rect x="10" y="10" width="80" height="80" rx="19.2" fill="none" stroke="#FCFBF8" stroke-width="9"/><g transform="translate(50 50) scale(0.72) translate(-51 -54)"><path d="M43.5 96L43.5 42L31 42L50 10L69 42L56.5 42L56.5 96Z" fill="#FCFBF8"/><path transform="translate(50 90) rotate(44)" d="M0 0A26.722 26.722 0 0 1 0 -40A46.694 46.694 0 0 1 0 0Z" fill="#FCFBF8"/><path transform="translate(50 72) rotate(-40) scale(-1 1)" d="M0 0A22.864 22.864 0 0 1 0 -34.4A38.98 38.98 0 0 1 0 0Z" fill="#FCFBF8"/></g></g>
</svg>
