<svg xmlns="http://www.w3.org/2000/svg" viewBox="0 0 100 100" width="1000" height="1000" role="img" aria-label="Caelestis, L'Élancée"><title>Caelestis, L'Élancée</title>
  <rect width="100" height="100" rx="24" fill="#FCFBF8"/><g transform="translate(10.719 11.000) scale(0.75000)"><path d="M45 96L45 44L36.5 44L50 8L63.5 44L55 44L55 96Z" fill="#255C41"/><path transform="translate(50 90) rotate(44)" d="M0 0A20.556 20.556 0 0 1 0 -34A34.361 34.361 0 0 1 0 0Z" fill="#255C41"/><path transform="translate(50 72) rotate(-40) scale(-1 1)" d="M0 0A17.602 17.602 0 0 1 0 -29.24A28.718 28.718 0 0 1 0 0Z" fill="#255C41"/></g>
</svg>
