<svg xmlns="http://www.w3.org/2000/svg" width="91mm" height="61mm" viewBox="0 0 91 61">
  <rect width="91" height="61" fill="#255C41"/>
  <g transform="translate(9.3448 10.1473) scale(0.200627)"><path d="M12 15A7 7 0 0 1 19 8L81 8A7 7 0 0 1 88 15L88 49A7 7 0 0 1 81 56L19 56A7 7 0 0 1 12 49Z" fill="none" stroke="#FCFBF8" stroke-width="7.5"/><path d="M44.5 56L40.5 80L59.5 80L55.5 56Z" fill="#FCFBF8"/><rect x="16" y="76" width="68" height="8" rx="4" fill="#FCFBF8"/></g>
  <g fill="#FCFBF8"><path transform="translate(10.766 46.102) scale(0.006000 -0.006000)" d="M390 -12Q230 -12 134.5 90.5Q39 193 39 365Q39 535 137 639Q235 743 396 743Q526 743 615 673Q704 603 723 485L588 485Q569 549 517.5 584.5Q466 620 393 620Q292 620 232.5 551.5Q173 483 173 366Q173 250 233 180.5Q293 111 393 111Q467 111 520.5 147Q574 183 592 244L725 244Q704 129 612 58.5Q520 -12 390 -12Z"/><path transform="translate(15.110 46.102) scale(0.006000 -0.006000)" d="M426 701L328 553L238 553L313 701ZM284 -13Q174 -13 104 59.5Q34 132 34 247Q34 363 102.5 436Q171 509 280 509Q391 509 456.5 440.5Q522 372 522 256L522 219L150 218Q164 87 286 87Q389 87 411 160L524 160Q508 79 444.5 33Q381 -13 284 -13ZM281 409Q171 409 153 296L401 296Q401 347 368.5 378Q336 409 281 409Z"/><path transform="translate(18.242 46.102) scale(0.006000 -0.006000)" d="M186 0L65 0L65 744L186 744Z"/><path transform="translate(19.538 46.102) scale(0.006000 -0.006000)" d="M284 -13Q174 -13 104 59.5Q34 132 34 247Q34 363 102.5 436Q171 509 280 509Q391 509 456.5 440.5Q522 372 522 256L522 219L150 218Q164 87 286 87Q389 87 411 160L524 160Q508 79 444.5 33Q381 -13 284 -13ZM281 409Q171 409 153 296L401 296Q401 347 368.5 378Q336 409 281 409Z"/><path transform="translate(22.670 46.102) scale(0.006000 -0.006000)" d="M25 150L141 150Q142 117 165 98.5Q188 80 230 80Q272 80 295 96Q318 112 318 139Q318 179 261 192L172 213Q104 228 72 261.5Q40 295 40 354Q40 426 94.5 467.5Q149 509 236 509Q319 509 370.5 465Q422 421 423 349L307 349Q306 381 286 399.5Q266 418 231 418Q195 418 175 402.5Q155 387 155 359Q155 318 219 303L308 282Q372 267 402.5 236Q433 205 433 149Q433 75 376 31Q319 -13 226 -13Q134 -13 79.5 32Q25 77 25 150Z"/><path transform="translate(25.238 46.102) scale(0.006000 -0.006000)" d="M231 0L109 0L109 392L14 392L14 494L109 494L109 648L231 648L231 494L327 494L327 392L231 392Z"/><path transform="translate(27.068 46.102) scale(0.006000 -0.006000)" d="M124 593Q93 593 71 614.5Q49 636 49 667Q49 698 70.5 719Q92 740 124 740Q154 740 175.5 719Q197 698 197 667Q197 636 175.5 614.5Q154 593 124 593ZM63 0L63 494L185 494L185 0Z"/><path transform="translate(28.346 46.102) scale(0.006000 -0.006000)" d="M185 0L63 0L63 494L176 494L186 430Q209 467 251 488Q293 509 344 509Q436 509 484 455Q532 401 532 304L532 0L410 0L410 275Q410 336 382.5 367Q355 398 306 398Q250 398 217.5 362Q185 326 185 266Z"/><path transform="translate(33.080 46.102) scale(0.006000 -0.006000)" d="M481 299L209 299L209 0L81 0L81 731L533 731L533 613L209 613L209 414L481 414Z"/><path transform="translate(36.092 46.102) scale(0.006000 -0.006000)" d="M373 496L373 383L328 383Q260 383 222.5 347Q185 311 185 240L185 0L63 0L63 493L178 493L185 421Q201 459 236 481Q271 503 319 503Q345 503 373 496Z"/><path transform="translate(38.240 46.102) scale(0.006000 -0.006000)" d="M398 494L520 494L520 0L407 0L398 66Q375 31 331 9Q287 -13 238 -13Q153 -13 105 40.5Q57 94 57 185L57 494L179 494L179 228Q179 96 284 96Q398 96 398 235Z"/><path transform="translate(41.528 46.102) scale(0.006000 -0.006000)" d="M186 0L65 0L65 744L186 744Z"/><path transform="translate(42.824 46.102) scale(0.006000 -0.006000)" d="M284 -13Q174 -13 104 59.5Q34 132 34 247Q34 363 102.5 436Q171 509 280 509Q391 509 456.5 440.5Q522 372 522 256L522 219L150 218Q164 87 286 87Q389 87 411 160L524 160Q508 79 444.5 33Q381 -13 284 -13ZM281 409Q171 409 153 296L401 296Q401 347 368.5 378Q336 409 281 409Z"/><path transform="translate(45.956 46.102) scale(0.006000 -0.006000)" d="M398 494L520 494L520 0L407 0L398 66Q375 31 331 9Q287 -13 238 -13Q153 -13 105 40.5Q57 94 57 185L57 494L179 494L179 228Q179 96 284 96Q398 96 398 235Z"/><path transform="translate(49.244 46.102) scale(0.006000 -0.006000)" d="M149 0L10 0L180 242L10 494L152 494L261 326L366 494L503 494L335 244L498 0L358 0L253 163Z"/></g>
  <g fill="#E3EFE8"><path transform="translate(10.773 49.967) scale(0.002700 -0.002700)" d="M466 307L182 307L182 0L84 0L84 723L520 723L520 633L182 633L182 396L466 396Z"/><path transform="translate(12.623 49.967) scale(0.002700 -0.002700)" d="M639 631.5Q639 631.5 687.5 579.25Q736 527 736 362Q736 197 638.5 92.5Q541 -12 387 -12Q234 -12 137.5 92.5Q41 197 41 362Q41 526 138 631Q235 736 388 736Q542 736 639 631.5ZM633 362Q633 488 565.5 564.5Q498 641 388 641Q278 641 211 564.5Q144 488 144 362Q144 236 211 159Q278 82 388 82Q498 82 565.5 159.5Q633 237 633 362Z"/><path transform="translate(15.071 49.967) scale(0.002700 -0.002700)" d="M182 0L84 0L84 723L182 723L552 164L552 723L650 723L650 0L552 0L182 559Z"/><path transform="translate(17.404 49.967) scale(0.002700 -0.002700)" d="M323 0L84 0L84 723L319 723Q481 723 581 623Q681 523 681 361Q681 200 582 100Q483 0 323 0ZM312 633L182 633L182 91L316 91Q437 91 508 164Q579 237 579 361Q579 487 507.5 560Q436 633 312 633Z"/><path transform="translate(19.618 49.967) scale(0.002700 -0.002700)" d="M114 0L12 0L276 723L385 723L650 0L547 0L482 180L178 180ZM318 567L208 265L453 265L342 567Q333 592 330 609Q327 594 318 567Z"/><path transform="translate(21.581 49.967) scale(0.002700 -0.002700)" d="M14 633L14 723L547 723L547 633L330 633L330 0L232 0L232 633Z"/><path transform="translate(23.450 49.967) scale(0.002700 -0.002700)" d="M525 0L84 0L84 723L525 723L525 633L182 633L182 407L491 407L491 320L182 320L182 91L525 91Z"/><path transform="translate(25.375 49.967) scale(0.002700 -0.002700)" d="M79 257L79 723L177 723L177 263Q177 176 223.5 129.5Q270 83 356 83Q441 83 487 130Q533 177 533 263L533 723L632 723L632 257Q632 133 558 60.5Q484 -12 356 -12Q228 -12 153.5 60Q79 132 79 257Z"/><path transform="translate(27.645 49.967) scale(0.002700 -0.002700)" d="M182 0L84 0L84 723L357 723Q473 723 538.5 665Q604 607 604 506Q604 431 567.5 379Q531 327 464 305L611 0L502 0L367 286L182 286ZM182 635L182 373L358 373Q426 373 463.5 408Q501 443 501 505Q501 568 463 601.5Q425 635 357 635Z"/></g>
</svg>
