<svg xmlns="http://www.w3.org/2000/svg" width="91mm" height="61mm" viewBox="0 0 91 61">
  <rect width="91" height="61" fill="#FCFBF8"/>
  <g transform="translate(10.1261 10.5498) scale(0.105933)"><path d="M12 15A7 7 0 0 1 19 8L81 8A7 7 0 0 1 88 15L88 49A7 7 0 0 1 81 56L19 56A7 7 0 0 1 12 49Z" fill="none" stroke="#255C41" stroke-width="7.5"/><path d="M44.5 56L40.5 80L59.5 80L55.5 56Z" fill="#255C41"/><rect x="16" y="76" width="68" height="8" rx="4" fill="#255C41"/><path transform="translate(108.529 64.966) scale(0.057574 -0.057574)" d="M384 -11Q229 -11 135 91Q41 193 41 361Q41 528 137.5 631.5Q234 735 389 735Q511 735 597.5 668Q684 601 704 490L599 490Q579 560 522 600.5Q465 641 386 641Q276 641 210 565Q144 489 144 362Q144 235 210 159Q276 83 386 83Q465 83 524 122.5Q583 162 603 229L707 229Q684 121 595 55Q506 -11 384 -11Z" fill="#255C41"/><path transform="translate(149.579 64.966) scale(0.057574 -0.057574)" d="M211 -12Q133 -12 88.5 28.5Q44 69 44 136Q44 203 91.5 243.5Q139 284 226 291L380 303L380 317Q380 428 265 428Q206 428 173.5 403Q141 378 141 334L59 334Q59 410 116.5 456.5Q174 503 269 503Q363 503 417.5 453Q472 403 472 307L472 0L392 0L382 79Q363 37 316.5 12.5Q270 -12 211 -12ZM238 61Q305 61 343 101.5Q381 142 381 211L381 237L256 227Q139 216 139 139Q139 101 165 81Q191 61 238 61Z" fill="#255C41"/><path transform="translate(179.172 64.966) scale(0.057574 -0.057574)" d="M279 -12Q171 -12 103.5 59Q36 130 36 244Q36 359 102.5 431Q169 503 275 503Q379 503 442 437Q505 371 505 262L505 227L127 226Q132 149 171.5 107.5Q211 66 281 66Q393 66 418 152L506 152Q488 73 429 30.5Q370 -12 279 -12ZM275 424Q214 424 176 389Q138 354 129 289L411 289Q411 350 374 387Q337 424 275 424Z" fill="#255C41"/><path transform="translate(209.225 64.966) scale(0.057574 -0.057574)" d="M164 0L70 0L70 736L164 736Z" fill="#255C41"/><path transform="translate(221.546 64.966) scale(0.057574 -0.057574)" d="M279 -12Q171 -12 103.5 59Q36 130 36 244Q36 359 102.5 431Q169 503 275 503Q379 503 442 437Q505 371 505 262L505 227L127 226Q132 149 171.5 107.5Q211 66 281 66Q393 66 418 152L506 152Q488 73 429 30.5Q370 -12 279 -12ZM275 424Q214 424 176 389Q138 354 129 289L411 289Q411 350 374 387Q337 424 275 424Z" fill="#255C41"/><path transform="translate(251.599 64.966) scale(0.057574 -0.057574)" d="M28 142L118 142Q118 105 144.5 83.5Q171 62 218 62Q267 62 294.5 81Q322 100 322 134Q322 160 307 175.5Q292 191 255 200L169 220Q41 251 41 356Q41 423 92 463Q143 503 225 503Q305 503 353.5 461.5Q402 420 404 350L314 350Q312 387 288 408.5Q264 430 222 430Q178 430 154 411.5Q130 393 130 359Q130 310 202 292L288 271Q352 256 382 225Q412 194 412 140Q412 71 358 29.5Q304 -12 216 -12Q130 -12 79 30Q28 72 28 142Z" fill="#255C41"/><path transform="translate(276.241 64.966) scale(0.057574 -0.057574)" d="M206 0L112 0L112 410L16 410L16 489L112 489L112 642L206 642L206 489L302 489L302 410L206 410Z" fill="#255C41"/><path transform="translate(293.398 64.966) scale(0.057574 -0.057574)" d="M158 623.5Q158 623.5 149 614.25Q140 605 114 605Q88 605 70 623.5Q52 642 52 667Q52 693 70 711Q88 729 114 729Q140 729 158 711Q176 693 176 667Q176 642 158 623.5ZM68 0L68 489L162 489L162 0Z" fill="#255C41"/><path transform="translate(305.488 64.966) scale(0.057574 -0.057574)" d="M28 142L118 142Q118 105 144.5 83.5Q171 62 218 62Q267 62 294.5 81Q322 100 322 134Q322 160 307 175.5Q292 191 255 200L169 220Q41 251 41 356Q41 423 92 463Q143 503 225 503Q305 503 353.5 461.5Q402 420 404 350L314 350Q312 387 288 408.5Q264 430 222 430Q178 430 154 411.5Q130 393 130 359Q130 310 202 292L288 271Q352 256 382 225Q412 194 412 140Q412 71 358 29.5Q304 -12 216 -12Q130 -12 79 30Q28 72 28 142Z" fill="#255C41"/></g>
  <g fill="#12160F"><path transform="translate(50.953 14.525) scale(0.004200 -0.004200)" d="M390 -12Q230 -12 134.5 90.5Q39 193 39 365Q39 535 137 639Q235 743 396 743Q526 743 615 673Q704 603 723 485L588 485Q569 549 517.5 584.5Q466 620 393 620Q292 620 232.5 551.5Q173 483 173 366Q173 250 233 180.5Q293 111 393 111Q467 111 520.5 147Q574 183 592 244L725 244Q704 129 612 58.5Q520 -12 390 -12Z"/><path transform="translate(53.994 14.525) scale(0.004200 -0.004200)" d="M426 701L328 553L238 553L313 701ZM284 -13Q174 -13 104 59.5Q34 132 34 247Q34 363 102.5 436Q171 509 280 509Q391 509 456.5 440.5Q522 372 522 256L522 219L150 218Q164 87 286 87Q389 87 411 160L524 160Q508 79 444.5 33Q381 -13 284 -13ZM281 409Q171 409 153 296L401 296Q401 347 368.5 378Q336 409 281 409Z"/><path transform="translate(56.186 14.525) scale(0.004200 -0.004200)" d="M186 0L65 0L65 744L186 744Z"/><path transform="translate(57.093 14.525) scale(0.004200 -0.004200)" d="M284 -13Q174 -13 104 59.5Q34 132 34 247Q34 363 102.5 436Q171 509 280 509Q391 509 456.5 440.5Q522 372 522 256L522 219L150 218Q164 87 286 87Q389 87 411 160L524 160Q508 79 444.5 33Q381 -13 284 -13ZM281 409Q171 409 153 296L401 296Q401 347 368.5 378Q336 409 281 409Z"/><path transform="translate(59.286 14.525) scale(0.004200 -0.004200)" d="M25 150L141 150Q142 117 165 98.5Q188 80 230 80Q272 80 295 96Q318 112 318 139Q318 179 261 192L172 213Q104 228 72 261.5Q40 295 40 354Q40 426 94.5 467.5Q149 509 236 509Q319 509 370.5 465Q422 421 423 349L307 349Q306 381 286 399.5Q266 418 231 418Q195 418 175 402.5Q155 387 155 359Q155 318 219 303L308 282Q372 267 402.5 236Q433 205 433 149Q433 75 376 31Q319 -13 226 -13Q134 -13 79.5 32Q25 77 25 150Z"/><path transform="translate(61.083 14.525) scale(0.004200 -0.004200)" d="M231 0L109 0L109 392L14 392L14 494L109 494L109 648L231 648L231 494L327 494L327 392L231 392Z"/><path transform="translate(62.364 14.525) scale(0.004200 -0.004200)" d="M124 593Q93 593 71 614.5Q49 636 49 667Q49 698 70.5 719Q92 740 124 740Q154 740 175.5 719Q197 698 197 667Q197 636 175.5 614.5Q154 593 124 593ZM63 0L63 494L185 494L185 0Z"/><path transform="translate(63.259 14.525) scale(0.004200 -0.004200)" d="M185 0L63 0L63 494L176 494L186 430Q209 467 251 488Q293 509 344 509Q436 509 484 455Q532 401 532 304L532 0L410 0L410 275Q410 336 382.5 367Q355 398 306 398Q250 398 217.5 362Q185 326 185 266Z"/><path transform="translate(66.573 14.525) scale(0.004200 -0.004200)" d="M481 299L209 299L209 0L81 0L81 731L533 731L533 613L209 613L209 414L481 414Z"/><path transform="translate(68.681 14.525) scale(0.004200 -0.004200)" d="M373 496L373 383L328 383Q260 383 222.5 347Q185 311 185 240L185 0L63 0L63 493L178 493L185 421Q201 459 236 481Q271 503 319 503Q345 503 373 496Z"/><path transform="translate(70.185 14.525) scale(0.004200 -0.004200)" d="M398 494L520 494L520 0L407 0L398 66Q375 31 331 9Q287 -13 238 -13Q153 -13 105 40.5Q57 94 57 185L57 494L179 494L179 228Q179 96 284 96Q398 96 398 235Z"/><path transform="translate(72.486 14.525) scale(0.004200 -0.004200)" d="M186 0L65 0L65 744L186 744Z"/><path transform="translate(73.394 14.525) scale(0.004200 -0.004200)" d="M284 -13Q174 -13 104 59.5Q34 132 34 247Q34 363 102.5 436Q171 509 280 509Q391 509 456.5 440.5Q522 372 522 256L522 219L150 218Q164 87 286 87Q389 87 411 160L524 160Q508 79 444.5 33Q381 -13 284 -13ZM281 409Q171 409 153 296L401 296Q401 347 368.5 378Q336 409 281 409Z"/><path transform="translate(75.586 14.525) scale(0.004200 -0.004200)" d="M398 494L520 494L520 0L407 0L398 66Q375 31 331 9Q287 -13 238 -13Q153 -13 105 40.5Q57 94 57 185L57 494L179 494L179 228Q179 96 284 96Q398 96 398 235Z"/><path transform="translate(77.888 14.525) scale(0.004200 -0.004200)" d="M149 0L10 0L180 242L10 494L152 494L261 326L366 494L503 494L335 244L498 0L358 0L253 163Z"/></g>
  <g fill="#2E7452"><path transform="translate(62.850 17.819) scale(0.002500 -0.002500)" d="M466 307L182 307L182 0L84 0L84 723L520 723L520 633L182 633L182 396L466 396Z"/><path transform="translate(64.563 17.819) scale(0.002500 -0.002500)" d="M639 631.5Q639 631.5 687.5 579.25Q736 527 736 362Q736 197 638.5 92.5Q541 -12 387 -12Q234 -12 137.5 92.5Q41 197 41 362Q41 526 138 631Q235 736 388 736Q542 736 639 631.5ZM633 362Q633 488 565.5 564.5Q498 641 388 641Q278 641 211 564.5Q144 488 144 362Q144 236 211 159Q278 82 388 82Q498 82 565.5 159.5Q633 237 633 362Z"/><path transform="translate(66.830 17.819) scale(0.002500 -0.002500)" d="M182 0L84 0L84 723L182 723L552 164L552 723L650 723L650 0L552 0L182 559Z"/><path transform="translate(68.990 17.819) scale(0.002500 -0.002500)" d="M323 0L84 0L84 723L319 723Q481 723 581 623Q681 523 681 361Q681 200 582 100Q483 0 323 0ZM312 633L182 633L182 91L316 91Q437 91 508 164Q579 237 579 361Q579 487 507.5 560Q436 633 312 633Z"/><path transform="translate(71.040 17.819) scale(0.002500 -0.002500)" d="M114 0L12 0L276 723L385 723L650 0L547 0L482 180L178 180ZM318 567L208 265L453 265L342 567Q333 592 330 609Q327 594 318 567Z"/><path transform="translate(72.858 17.819) scale(0.002500 -0.002500)" d="M14 633L14 723L547 723L547 633L330 633L330 0L232 0L232 633Z"/><path transform="translate(74.588 17.819) scale(0.002500 -0.002500)" d="M525 0L84 0L84 723L525 723L525 633L182 633L182 407L491 407L491 320L182 320L182 91L525 91Z"/><path transform="translate(76.370 17.819) scale(0.002500 -0.002500)" d="M79 257L79 723L177 723L177 263Q177 176 223.5 129.5Q270 83 356 83Q441 83 487 130Q533 177 533 263L533 723L632 723L632 257Q632 133 558 60.5Q484 -12 356 -12Q228 -12 153.5 60Q79 132 79 257Z"/><path transform="translate(78.472 17.819) scale(0.002500 -0.002500)" d="M182 0L84 0L84 723L357 723Q473 723 538.5 665Q604 607 604 506Q604 431 567.5 379Q531 327 464 305L611 0L502 0L367 286L182 286ZM182 635L182 373L358 373Q426 373 463.5 408Q501 443 501 505Q501 568 463 601.5Q425 635 357 635Z"/></g>
  <g fill="#5C6259"><path transform="translate(10.909 25.567) scale(0.002600 -0.002600)" d="M44 530Q44 620 110 674.5Q176 729 284 729Q381 729 441 678Q501 627 509 537L436 537Q430 598 390 631Q350 664 283 664Q207 664 161.5 628Q116 592 116 531Q116 437 228 409L351 379Q521 338 521 191Q521 98 454.5 43Q388 -12 277 -12Q173 -12 107.5 39Q42 90 35 178L109 178Q112 122 158 88Q204 54 277 54Q356 54 402.5 90Q449 126 449 187Q449 285 336 311L215 341Q44 382 44 530Z"/><path transform="translate(12.373 25.567) scale(0.002600 -0.002600)" d="M142.5 632Q142.5 632 134.75 624.5Q127 617 106 617Q85 617 70 632Q55 647 55 668Q55 689 70 704.5Q85 720 106 720Q127 720 142.5 704.5Q158 689 158 668Q158 647 142.5 632ZM72 0L72 484L141 484L141 0Z"/><path transform="translate(12.927 25.567) scale(0.002600 -0.002600)" d="M183 0L115 0L115 426L18 426L18 484L115 484L115 637L183 637L183 484L280 484L280 426L183 426Z"/><path transform="translate(13.688 25.567) scale(0.002600 -0.002600)" d="M275 -12Q169 -12 103.5 58Q38 128 38 242Q38 355 102.5 426Q167 497 270 497Q368 497 429 433.5Q490 370 490 267L490 233L105 233Q109 144 153.5 95.5Q198 47 276 47Q396 47 424 145L490 145Q470 68 415 28Q360 -12 275 -12ZM379.5 395.5Q379.5 395.5 358.75 416.75Q338 438 270 438Q202 438 159 396.5Q116 355 107 283L421 283Q421 353 379.5 395.5Z"/><path transform="translate(15.061 25.567) scale(0.002600 -0.002600)" d="M31 136L97 136Q97 94 126.5 69.5Q156 45 207 45Q263 45 294.5 67.5Q326 90 326 129Q326 160 308.5 178Q291 196 249 206L166 227Q41 258 41 358Q41 421 89 459Q137 497 216 497Q293 497 339 457.5Q385 418 387 351L320 351Q318 393 290.5 416.5Q263 440 214 440Q163 440 135.5 419Q108 398 108 359Q108 302 187 283L270 262Q333 246 362.5 215Q392 184 392 132Q392 67 341.5 27.5Q291 -12 208 -12Q126 -12 78.5 28Q31 68 31 136Z"/><path transform="translate(16.910 25.567) scale(0.002600 -0.002600)" d="M142.5 632Q142.5 632 134.75 624.5Q127 617 106 617Q85 617 70 632Q55 647 55 668Q55 689 70 704.5Q85 720 106 720Q127 720 142.5 704.5Q158 689 158 668Q158 647 142.5 632ZM72 0L72 484L141 484L141 0Z"/><path transform="translate(17.464 25.567) scale(0.002600 -0.002600)" d="M141 0L72 0L72 484L132 484L142 400Q166 446 210.5 471.5Q255 497 308 497Q496 497 496 296L496 0L427 0L427 281Q427 434 296 434Q223 434 182 385Q141 336 141 253Z"/><path transform="translate(18.925 25.567) scale(0.002600 -0.002600)" d="M183 0L115 0L115 426L18 426L18 484L115 484L115 637L183 637L183 484L280 484L280 426L183 426Z"/><path transform="translate(19.687 25.567) scale(0.002600 -0.002600)" d="M275 -12Q169 -12 103.5 58Q38 128 38 242Q38 355 102.5 426Q167 497 270 497Q368 497 429 433.5Q490 370 490 267L490 233L105 233Q109 144 153.5 95.5Q198 47 276 47Q396 47 424 145L490 145Q470 68 415 28Q360 -12 275 -12ZM379.5 395.5Q379.5 395.5 358.75 416.75Q338 438 270 438Q202 438 159 396.5Q116 355 107 283L421 283Q421 353 379.5 395.5Z"/><path transform="translate(21.059 25.567) scale(0.002600 -0.002600)" d="M325 490L325 428L287 428Q220 428 180.5 386.5Q141 345 141 276L141 0L72 0L72 484L137 484L142 409Q156 449 193 472Q230 495 280 495Q304 495 325 490Z"/><path transform="translate(21.956 25.567) scale(0.002600 -0.002600)" d="M141 0L72 0L72 484L132 484L142 400Q166 446 210.5 471.5Q255 497 308 497Q496 497 496 296L496 0L427 0L427 281Q427 434 296 434Q223 434 182 385Q141 336 141 253Z"/><path transform="translate(23.418 25.567) scale(0.002600 -0.002600)" d="M275 -12Q169 -12 103.5 58Q38 128 38 242Q38 355 102.5 426Q167 497 270 497Q368 497 429 433.5Q490 370 490 267L490 233L105 233Q109 144 153.5 95.5Q198 47 276 47Q396 47 424 145L490 145Q470 68 415 28Q360 -12 275 -12ZM379.5 395.5Q379.5 395.5 358.75 416.75Q338 438 270 438Q202 438 159 396.5Q116 355 107 283L421 283Q421 353 379.5 395.5Z"/><path transform="translate(24.777 25.567) scale(0.002600 -0.002600)" d="M183 0L115 0L115 426L18 426L18 484L115 484L115 637L183 637L183 484L280 484L280 426L183 426Z"/><path transform="translate(25.474 25.567) scale(0.002600 -0.002600)" d="M194 34Q194 -12 162.5 -48Q131 -84 84 -91L84 -54Q111 -50 128.5 -32.5Q146 -15 146 6Q136 -1 120 -1Q98 -1 83 13.5Q68 28 68 53Q68 79 84.5 96Q101 113 127 113Q155 113 174.5 91.5Q194 70 194 34Z"/><path transform="translate(26.876 25.567) scale(0.002600 -0.002600)" d="M391 0L391 426L161 426L161 0L92 0L92 426L18 426L18 484L92 484L92 578Q92 655 128.5 692Q165 729 223 729Q256 729 277 725L277 665L235 665Q193 665 177 644Q161 623 161 578L161 484L460 484L460 0ZM425 622Q404 622 390.5 635.5Q377 649 377 670Q377 691 390.5 705Q404 719 425 719Q445 719 459 705Q473 691 473 670Q473 649 459 635.5Q445 622 425 622Z"/><path transform="translate(28.251 25.567) scale(0.002600 -0.002600)" d="M101.5 57.5Q101.5 57.5 69.75 92.25Q38 127 38 241Q38 355 102.5 426Q167 497 272 497Q356 497 413.5 452Q471 407 485 332L416 332Q403 381 364 408.5Q325 436 273 436Q199 436 152.5 383Q106 330 106 242Q106 156 150.5 103Q195 50 268 50Q322 50 362.5 77.5Q403 105 417 152L487 152Q470 78 410 33Q350 -12 268 -12Q165 -12 101.5 57.5Z"/><path transform="translate(29.603 25.567) scale(0.002600 -0.002600)" d="M141 1L72 1L72 729L141 729L141 400Q193 497 312 497Q405 497 450.5 444Q496 391 496 296L496 0L427 0L427 281Q427 434 299 434Q224 434 182.5 385.5Q141 337 141 264Z"/><path transform="translate(31.064 25.567) scale(0.002600 -0.002600)" d="M275 -12Q169 -12 103.5 58Q38 128 38 242Q38 355 102.5 426Q167 497 270 497Q368 497 429 433.5Q490 370 490 267L490 233L105 233Q109 144 153.5 95.5Q198 47 276 47Q396 47 424 145L490 145Q470 68 415 28Q360 -12 275 -12ZM379.5 395.5Q379.5 395.5 358.75 416.75Q338 438 270 438Q202 438 159 396.5Q116 355 107 283L421 283Q421 353 379.5 395.5Z"/><path transform="translate(33.157 25.567) scale(0.002600 -0.002600)" d="M387 660Q264 660 191 576.5Q118 493 118 355Q118 217 192.5 136.5Q267 56 389 56Q436 56 477 68Q518 80 552 106Q586 132 606 178Q626 224 626 286L626 323L367 323L367 387L694 387L694 -1L637 -1L630 113Q600 58 535 23Q470 -12 386 -12Q233 -12 138 89Q43 190 43 355Q43 520 139 624Q235 728 388 728Q501 728 582 669Q663 610 684 512L606 512Q584 584 526 622Q468 660 387 660Z"/><path transform="translate(35.107 25.567) scale(0.002600 -0.002600)" d="M38 242Q38 353 107.5 425Q177 497 284 497Q391 497 460.5 425Q530 353 530 242Q530 132 460.5 60Q391 -12 284 -12Q177 -12 107.5 60Q38 132 38 242ZM108 243Q108 157 157 103.5Q206 50 284 50Q361 50 410.5 104Q460 158 460 243Q460 327 410.5 381Q361 435 284 435Q206 435 157 381Q108 327 108 243Z"/><path transform="translate(36.584 25.567) scale(0.002600 -0.002600)" d="M38 242Q38 353 107.5 425Q177 497 284 497Q391 497 460.5 425Q530 353 530 242Q530 132 460.5 60Q391 -12 284 -12Q177 -12 107.5 60Q38 132 38 242ZM108 243Q108 157 157 103.5Q206 50 284 50Q361 50 410.5 104Q460 158 460 243Q460 327 410.5 381Q361 435 284 435Q206 435 157 381Q108 327 108 243Z"/><path transform="translate(38.061 25.567) scale(0.002600 -0.002600)" d="M99.5 84.5Q99.5 84.5 69.25 119.25Q39 154 39 256Q39 358 101 427.5Q163 497 266 497Q397 497 445 387L452 484L512 484L512 15Q512 -93 448 -158Q384 -223 278 -223Q185 -223 123.5 -173.5Q62 -124 48 -36L117 -36Q128 -95 171 -127.5Q214 -160 279 -160Q353 -160 398.5 -114Q444 -68 444 8L444 123Q419 72 371 43.5Q323 15 261 15Q160 15 99.5 84.5ZM108 257Q108 180 152.5 128.5Q197 77 271 77Q348 77 393 127Q438 177 438 257Q438 336 394 386Q350 436 272 436Q196 436 152 384.5Q108 333 108 257Z"/><path transform="translate(39.579 25.567) scale(0.002600 -0.002600)" d="M144 0L75 0L75 729L144 729Z"/><path transform="translate(40.149 25.567) scale(0.002600 -0.002600)" d="M275 -12Q169 -12 103.5 58Q38 128 38 242Q38 355 102.5 426Q167 497 270 497Q368 497 429 433.5Q490 370 490 267L490 233L105 233Q109 144 153.5 95.5Q198 47 276 47Q396 47 424 145L490 145Q470 68 415 28Q360 -12 275 -12ZM379.5 395.5Q379.5 395.5 358.75 416.75Q338 438 270 438Q202 438 159 396.5Q116 355 107 283L421 283Q421 353 379.5 395.5Z"/><path transform="translate(42.242 25.567) scale(0.002600 -0.002600)" d="M275 -12Q169 -12 103.5 58Q38 128 38 242Q38 355 102.5 426Q167 497 270 497Q368 497 429 433.5Q490 370 490 267L490 233L105 233Q109 144 153.5 95.5Q198 47 276 47Q396 47 424 145L490 145Q470 68 415 28Q360 -12 275 -12ZM379.5 395.5Q379.5 395.5 358.75 416.75Q338 438 270 438Q202 438 159 396.5Q116 355 107 283L421 283Q421 353 379.5 395.5Z"/><path transform="translate(43.601 25.567) scale(0.002600 -0.002600)" d="M183 0L115 0L115 426L18 426L18 484L115 484L115 637L183 637L183 484L280 484L280 426L183 426Z"/><path transform="translate(45.096 25.567) scale(0.002600 -0.002600)" d="M325 490L325 428L287 428Q220 428 180.5 386.5Q141 345 141 276L141 0L72 0L72 484L137 484L142 409Q156 449 193 472Q230 495 280 495Q304 495 325 490Z"/><path transform="translate(45.944 25.567) scale(0.002600 -0.002600)" d="M377 659L301 540L244 540L305 659ZM275 -12Q169 -12 103.5 58Q38 128 38 242Q38 355 102.5 426Q167 497 270 497Q368 497 429 433.5Q490 370 490 267L490 233L105 233Q109 144 153.5 95.5Q198 47 276 47Q396 47 424 145L490 145Q470 68 415 28Q360 -12 275 -12ZM379.5 395.5Q379.5 395.5 358.75 416.75Q338 438 270 438Q202 438 159 396.5Q116 355 107 283L421 283Q421 353 379.5 395.5Z"/><path transform="translate(47.317 25.567) scale(0.002600 -0.002600)" d="M18 484L92 484L92 578Q92 655 129 692Q166 729 226 729Q258 729 279 725L279 666L238 666Q194 666 177.5 644.5Q161 623 161 578L161 484L275 484L275 426L161 426L161 0L92 0L92 426L18 426Z"/><path transform="translate(48.050 25.567) scale(0.002600 -0.002600)" d="M377 659L301 540L244 540L305 659ZM275 -12Q169 -12 103.5 58Q38 128 38 242Q38 355 102.5 426Q167 497 270 497Q368 497 429 433.5Q490 370 490 267L490 233L105 233Q109 144 153.5 95.5Q198 47 276 47Q396 47 424 145L490 145Q470 68 415 28Q360 -12 275 -12ZM379.5 395.5Q379.5 395.5 358.75 416.75Q338 438 270 438Q202 438 159 396.5Q116 355 107 283L421 283Q421 353 379.5 395.5Z"/><path transform="translate(49.423 25.567) scale(0.002600 -0.002600)" d="M325 490L325 428L287 428Q220 428 180.5 386.5Q141 345 141 276L141 0L72 0L72 484L137 484L142 409Q156 449 193 472Q230 495 280 495Q304 495 325 490Z"/><path transform="translate(50.270 25.567) scale(0.002600 -0.002600)" d="M275 -12Q169 -12 103.5 58Q38 128 38 242Q38 355 102.5 426Q167 497 270 497Q368 497 429 433.5Q490 370 490 267L490 233L105 233Q109 144 153.5 95.5Q198 47 276 47Q396 47 424 145L490 145Q470 68 415 28Q360 -12 275 -12ZM379.5 395.5Q379.5 395.5 358.75 416.75Q338 438 270 438Q202 438 159 396.5Q116 355 107 283L421 283Q421 353 379.5 395.5Z"/><path transform="translate(51.643 25.567) scale(0.002600 -0.002600)" d="M141 0L72 0L72 484L132 484L142 400Q166 446 210.5 471.5Q255 497 308 497Q496 497 496 296L496 0L427 0L427 281Q427 434 296 434Q223 434 182 385Q141 336 141 253Z"/><path transform="translate(53.104 25.567) scale(0.002600 -0.002600)" d="M101.5 57.5Q101.5 57.5 69.75 92.25Q38 127 38 241Q38 355 102.5 426Q167 497 272 497Q356 497 413.5 452Q471 407 485 332L416 332Q403 381 364 408.5Q325 436 273 436Q199 436 152.5 383Q106 330 106 242Q106 156 150.5 103Q195 50 268 50Q322 50 362.5 77.5Q403 105 417 152L487 152Q470 78 410 33Q350 -12 268 -12Q165 -12 101.5 57.5Z"/><path transform="translate(54.456 25.567) scale(0.002600 -0.002600)" d="M275 -12Q169 -12 103.5 58Q38 128 38 242Q38 355 102.5 426Q167 497 270 497Q368 497 429 433.5Q490 370 490 267L490 233L105 233Q109 144 153.5 95.5Q198 47 276 47Q396 47 424 145L490 145Q470 68 415 28Q360 -12 275 -12ZM379.5 395.5Q379.5 395.5 358.75 416.75Q338 438 270 438Q202 438 159 396.5Q116 355 107 283L421 283Q421 353 379.5 395.5Z"/><path transform="translate(55.829 25.567) scale(0.002600 -0.002600)" d="M141 0L72 0L72 484L132 484L140 415Q158 453 196.5 475Q235 497 286 497Q342 497 383.5 469.5Q425 442 442 394Q459 442 501 469.5Q543 497 601 497Q680 497 727.5 448.5Q775 400 775 317L775 0L708 0L708 303Q708 365 676 400Q644 435 588 435Q529 435 494 396Q459 357 459 299L459 0L391 0L391 304Q391 365 358.5 399.5Q326 434 271 434Q212 434 176.5 395.5Q141 357 141 300Z"/><path transform="translate(58.018 25.567) scale(0.002600 -0.002600)" d="M275 -12Q169 -12 103.5 58Q38 128 38 242Q38 355 102.5 426Q167 497 270 497Q368 497 429 433.5Q490 370 490 267L490 233L105 233Q109 144 153.5 95.5Q198 47 276 47Q396 47 424 145L490 145Q470 68 415 28Q360 -12 275 -12ZM379.5 395.5Q379.5 395.5 358.75 416.75Q338 438 270 438Q202 438 159 396.5Q116 355 107 283L421 283Q421 353 379.5 395.5Z"/><path transform="translate(59.391 25.567) scale(0.002600 -0.002600)" d="M141 0L72 0L72 484L132 484L142 400Q166 446 210.5 471.5Q255 497 308 497Q496 497 496 296L496 0L427 0L427 281Q427 434 296 434Q223 434 182 385Q141 336 141 253Z"/><path transform="translate(60.852 25.567) scale(0.002600 -0.002600)" d="M183 0L115 0L115 426L18 426L18 484L115 484L115 637L183 637L183 484L280 484L280 426L183 426Z"/></g>
  <g fill="#12160F"><path transform="translate(31.853 40.361) scale(0.003000 -0.003000)" d="M49 361Q49 530 130 633.5Q211 737 347 737Q482 737 563 633.5Q644 530 644 361Q644 191 564.5 89Q485 -13 347 -13Q208 -13 128.5 88.5Q49 190 49 361ZM146 361Q146 227 199 151Q252 75 347 75Q442 75 494.5 151Q547 227 547 361Q547 497 494.5 573Q442 649 347 649Q252 649 199 572.5Q146 496 146 361Z"/><path transform="translate(33.884 40.361) scale(0.003000 -0.003000)" d="M8 723L513 723L513 633L239 0L137 0L414 633L8 633Z"/><path transform="translate(36.263 40.361) scale(0.003000 -0.003000)" d="M141 494L310 723L424 723L243 483Q281 498 319 498Q430 498 500 426.5Q570 355 570 247Q570 134 495 61Q420 -12 307 -12Q195 -12 118 62.5Q41 137 41 247Q41 311 63 364Q85 417 141 494ZM187.5 367.5Q187.5 367.5 164.25 343.75Q141 320 141 246Q141 172 187.5 124Q234 76 307 76Q379 76 425 124Q471 172 471 246Q471 320 425 367.5Q379 415 307 415Q234 415 187.5 367.5Z"/><path transform="translate(38.036 40.361) scale(0.003000 -0.003000)" d="M470 229L301 0L187 0L368 240Q330 225 292 225Q181 225 111 296.5Q41 368 41 477Q41 589 116.5 662.5Q192 736 304 736Q417 736 493.5 661Q570 586 570 476Q570 413 548 359.5Q526 306 470 229ZM470 477Q470 552 423.5 600Q377 648 304 648Q232 648 186 599.5Q140 551 140 477Q140 403 186 355.5Q232 308 304 308Q377 308 423.5 355.5Q470 403 470 477Z"/><path transform="translate(40.688 40.361) scale(0.003000 -0.003000)" d="M256 374L184 374L184 439L389 636L64 636L64 723L513 723L513 644L315 455Q410 443 470.5 382.5Q531 322 531 227Q531 119 458.5 53.5Q386 -12 274 -12Q165 -12 97.5 51.5Q30 115 30 225L127 225Q127 155 167 115.5Q207 76 276 76Q347 76 389 117.5Q431 159 431 229Q431 296 385.5 335Q340 374 256 374Z"/><path transform="translate(42.392 40.361) scale(0.003000 -0.003000)" d="M141 494L310 723L424 723L243 483Q281 498 319 498Q430 498 500 426.5Q570 355 570 247Q570 134 495 61Q420 -12 307 -12Q195 -12 118 62.5Q41 137 41 247Q41 311 63 364Q85 417 141 494ZM187.5 367.5Q187.5 367.5 164.25 343.75Q141 320 141 246Q141 172 187.5 124Q234 76 307 76Q379 76 425 124Q471 172 471 246Q471 320 425 367.5Q379 415 307 415Q234 415 187.5 367.5Z"/><path transform="translate(45.044 40.361) scale(0.003000 -0.003000)" d="M534 1L46 0L46 75L279 276Q367 352 398 398.5Q429 445 429 503Q429 571 392 609.5Q355 648 290 648Q223 648 182.5 602.5Q142 557 141 480L43 480Q45 596 113 666Q181 736 291 736Q400 736 464.5 674.5Q529 613 529 509Q529 433 488.5 370Q448 307 350 222L200 92L534 92Z"/><path transform="translate(46.751 40.361) scale(0.003000 -0.003000)" d="M8 723L513 723L513 633L239 0L137 0L414 633L8 633Z"/><path transform="translate(49.130 40.361) scale(0.003000 -0.003000)" d="M534 1L46 0L46 75L279 276Q367 352 398 398.5Q429 445 429 503Q429 571 392 609.5Q355 648 290 648Q223 648 182.5 602.5Q142 557 141 480L43 480Q45 596 113 666Q181 736 291 736Q400 736 464.5 674.5Q529 613 529 509Q529 433 488.5 370Q448 307 350 222L200 92L534 92Z"/><path transform="translate(50.837 40.361) scale(0.003000 -0.003000)" d="M8 723L513 723L513 633L239 0L137 0L414 633L8 633Z"/></g>
  <g fill="#2E7452"><path transform="translate(10.965 40.361) scale(0.002500 -0.002500)" d="M14 633L14 723L547 723L547 633L330 633L330 0L232 0L232 633Z"/><path transform="translate(12.670 40.361) scale(0.002500 -0.002500)" d="M425 909L338 776L266 776L333 909ZM525 0L84 0L84 723L525 723L525 633L182 633L182 407L491 407L491 320L182 320L182 91L525 91Z"/><path transform="translate(14.428 40.361) scale(0.002500 -0.002500)" d="M182 723L182 91L500 91L500 0L84 0L84 723Z"/><path transform="translate(16.032 40.361) scale(0.002500 -0.002500)" d="M425 909L338 776L266 776L333 909ZM525 0L84 0L84 723L525 723L525 633L182 633L182 407L491 407L491 320L182 320L182 91L525 91Z"/><path transform="translate(17.790 40.361) scale(0.002500 -0.002500)" d="M365 258L182 258L182 0L84 0L84 723L365 723Q471 723 534.5 659.5Q598 596 598 491Q598 389 534 323.5Q470 258 365 258ZM348 635L182 635L182 346L344 346Q416 346 455.5 385Q495 424 495 492Q495 560 456 597.5Q417 635 348 635Z"/><path transform="translate(19.653 40.361) scale(0.002500 -0.002500)" d="M182 0L84 0L84 723L182 723L182 412L540 412L540 723L638 723L638 0L540 0L540 321L182 321Z"/><path transform="translate(21.758 40.361) scale(0.002500 -0.002500)" d="M639 631.5Q639 631.5 687.5 579.25Q736 527 736 362Q736 197 638.5 92.5Q541 -12 387 -12Q234 -12 137.5 92.5Q41 197 41 362Q41 526 138 631Q235 736 388 736Q542 736 639 631.5ZM633 362Q633 488 565.5 564.5Q498 641 388 641Q278 641 211 564.5Q144 488 144 362Q144 236 211 159Q278 82 388 82Q498 82 565.5 159.5Q633 237 633 362Z"/><path transform="translate(24.000 40.361) scale(0.002500 -0.002500)" d="M182 0L84 0L84 723L182 723L552 164L552 723L650 723L650 0L552 0L182 559Z"/><path transform="translate(26.135 40.361) scale(0.002500 -0.002500)" d="M525 0L84 0L84 723L525 723L525 633L182 633L182 407L491 407L491 320L182 320L182 91L525 91Z"/></g>
  <g fill="#12160F"><path transform="translate(31.886 44.906) scale(0.003000 -0.003000)" d="M101.5 57.5Q101.5 57.5 69.75 92.25Q38 127 38 241Q38 355 102.5 426Q167 497 272 497Q356 497 413.5 452Q471 407 485 332L416 332Q403 381 364 408.5Q325 436 273 436Q199 436 152.5 383Q106 330 106 242Q106 156 150.5 103Q195 50 268 50Q322 50 362.5 77.5Q403 105 417 152L487 152Q470 78 410 33Q350 -12 268 -12Q165 -12 101.5 57.5Z"/><path transform="translate(33.446 44.906) scale(0.003000 -0.003000)" d="M38 242Q38 353 107.5 425Q177 497 284 497Q391 497 460.5 425Q530 353 530 242Q530 132 460.5 60Q391 -12 284 -12Q177 -12 107.5 60Q38 132 38 242ZM108 243Q108 157 157 103.5Q206 50 284 50Q361 50 410.5 104Q460 158 460 243Q460 327 410.5 381Q361 435 284 435Q206 435 157 381Q108 327 108 243Z"/><path transform="translate(35.150 44.906) scale(0.003000 -0.003000)" d="M141 0L72 0L72 484L132 484L142 400Q166 446 210.5 471.5Q255 497 308 497Q496 497 496 296L496 0L427 0L427 281Q427 434 296 434Q223 434 182 385Q141 336 141 253Z"/><path transform="translate(36.836 44.906) scale(0.003000 -0.003000)" d="M183 0L115 0L115 426L18 426L18 484L115 484L115 637L183 637L183 484L280 484L280 426L183 426Z"/><path transform="translate(37.706 44.906) scale(0.003000 -0.003000)" d="M211 -12Q135 -12 91 27Q47 66 47 131Q47 197 95 237.5Q143 278 228 285L388 298L388 314Q388 439 260 439Q197 439 161.5 412Q126 385 126 336L63 336Q63 409 117.5 453Q172 497 262 497Q350 497 403 451Q456 405 456 313L456 0L398 0L389 85Q366 39 319 13.5Q272 -12 211 -12ZM227 44Q302 44 345 92Q388 140 388 220L388 246L245 235Q117 224 117 133Q117 90 146.5 67Q176 44 227 44Z"/><path transform="translate(39.272 44.906) scale(0.003000 -0.003000)" d="M101.5 57.5Q101.5 57.5 69.75 92.25Q38 127 38 241Q38 355 102.5 426Q167 497 272 497Q356 497 413.5 452Q471 407 485 332L416 332Q403 381 364 408.5Q325 436 273 436Q199 436 152.5 383Q106 330 106 242Q106 156 150.5 103Q195 50 268 50Q322 50 362.5 77.5Q403 105 417 152L487 152Q470 78 410 33Q350 -12 268 -12Q165 -12 101.5 57.5Z"/><path transform="translate(40.832 44.906) scale(0.003000 -0.003000)" d="M183 0L115 0L115 426L18 426L18 484L115 484L115 637L183 637L183 484L280 484L280 426L183 426Z"/><path transform="translate(41.726 44.906) scale(0.003000 -0.003000)" d="M256 220Q256 280 300 317.5Q344 355 424 362L571 373L571 388Q571 503 452 503Q395 503 363 478Q331 453 331 409L271 409Q271 475 321.5 515.5Q372 556 455 556Q540 556 587.5 512Q635 468 635 387L635 196Q635 136 697 136Q748 136 779.5 190Q811 244 811 331Q811 483 710.5 581Q610 679 454 679Q303 679 199.5 574.5Q96 470 96 317Q96 162 199 57Q302 -48 454 -48Q584 -48 681 31L709 -10Q598 -98 454 -98Q278 -98 160 21Q42 140 42 317Q42 492 160.5 610.5Q279 729 454 729Q633 729 749 617Q865 505 865 331Q865 225 816.5 157Q768 89 692 89Q585 89 576 180Q555 137 511 113Q467 89 410 89Q339 89 297.5 124Q256 159 256 220ZM320 221Q320 183 347 162.5Q374 142 424 142Q492 142 531.5 184.5Q571 227 571 302L571 324L439 314Q320 303 320 221Z"/><path transform="translate(44.447 44.906) scale(0.003000 -0.003000)" d="M101.5 57.5Q101.5 57.5 69.75 92.25Q38 127 38 241Q38 355 102.5 426Q167 497 272 497Q356 497 413.5 452Q471 407 485 332L416 332Q403 381 364 408.5Q325 436 273 436Q199 436 152.5 383Q106 330 106 242Q106 156 150.5 103Q195 50 268 50Q322 50 362.5 77.5Q403 105 417 152L487 152Q470 78 410 33Q350 -12 268 -12Q165 -12 101.5 57.5Z"/><path transform="translate(46.007 44.906) scale(0.003000 -0.003000)" d="M211 -12Q135 -12 91 27Q47 66 47 131Q47 197 95 237.5Q143 278 228 285L388 298L388 314Q388 439 260 439Q197 439 161.5 412Q126 385 126 336L63 336Q63 409 117.5 453Q172 497 262 497Q350 497 403 451Q456 405 456 313L456 0L398 0L389 85Q366 39 319 13.5Q272 -12 211 -12ZM227 44Q302 44 345 92Q388 140 388 220L388 246L245 235Q117 224 117 133Q117 90 146.5 67Q176 44 227 44Z"/><path transform="translate(47.573 44.906) scale(0.003000 -0.003000)" d="M275 -12Q169 -12 103.5 58Q38 128 38 242Q38 355 102.5 426Q167 497 270 497Q368 497 429 433.5Q490 370 490 267L490 233L105 233Q109 144 153.5 95.5Q198 47 276 47Q396 47 424 145L490 145Q470 68 415 28Q360 -12 275 -12ZM379.5 395.5Q379.5 395.5 358.75 416.75Q338 438 270 438Q202 438 159 396.5Q116 355 107 283L421 283Q421 353 379.5 395.5Z"/><path transform="translate(49.157 44.906) scale(0.003000 -0.003000)" d="M144 0L75 0L75 729L144 729Z"/><path transform="translate(49.814 44.906) scale(0.003000 -0.003000)" d="M275 -12Q169 -12 103.5 58Q38 128 38 242Q38 355 102.5 426Q167 497 270 497Q368 497 429 433.5Q490 370 490 267L490 233L105 233Q109 144 153.5 95.5Q198 47 276 47Q396 47 424 145L490 145Q470 68 415 28Q360 -12 275 -12ZM379.5 395.5Q379.5 395.5 358.75 416.75Q338 438 270 438Q202 438 159 396.5Q116 355 107 283L421 283Q421 353 379.5 395.5Z"/><path transform="translate(51.398 44.906) scale(0.003000 -0.003000)" d="M31 136L97 136Q97 94 126.5 69.5Q156 45 207 45Q263 45 294.5 67.5Q326 90 326 129Q326 160 308.5 178Q291 196 249 206L166 227Q41 258 41 358Q41 421 89 459Q137 497 216 497Q293 497 339 457.5Q385 418 387 351L320 351Q318 393 290.5 416.5Q263 440 214 440Q163 440 135.5 419Q108 398 108 359Q108 302 187 283L270 262Q333 246 362.5 215Q392 184 392 132Q392 67 341.5 27.5Q291 -12 208 -12Q126 -12 78.5 28Q31 68 31 136Z"/><path transform="translate(52.700 44.906) scale(0.003000 -0.003000)" d="M183 0L115 0L115 426L18 426L18 484L115 484L115 637L183 637L183 484L280 484L280 426L183 426Z"/><path transform="translate(53.594 44.906) scale(0.003000 -0.003000)" d="M142.5 632Q142.5 632 134.75 624.5Q127 617 106 617Q85 617 70 632Q55 647 55 668Q55 689 70 704.5Q85 720 106 720Q127 720 142.5 704.5Q158 689 158 668Q158 647 142.5 632ZM72 0L72 484L141 484L141 0Z"/><path transform="translate(54.233 44.906) scale(0.003000 -0.003000)" d="M31 136L97 136Q97 94 126.5 69.5Q156 45 207 45Q263 45 294.5 67.5Q326 90 326 129Q326 160 308.5 178Q291 196 249 206L166 227Q41 258 41 358Q41 421 89 459Q137 497 216 497Q293 497 339 457.5Q385 418 387 351L320 351Q318 393 290.5 416.5Q263 440 214 440Q163 440 135.5 419Q108 398 108 359Q108 302 187 283L270 262Q333 246 362.5 215Q392 184 392 132Q392 67 341.5 27.5Q291 -12 208 -12Q126 -12 78.5 28Q31 68 31 136Z"/><path transform="translate(55.511 44.906) scale(0.003000 -0.003000)" d="M175.5 7Q175.5 7 166.25 -2Q157 -11 131 -11Q105 -11 86.5 7Q68 25 68 50Q68 76 87 94.5Q106 113 131 113Q156 113 175 94.5Q194 76 194 50Q194 25 175.5 7Z"/><path transform="translate(56.231 44.906) scale(0.003000 -0.003000)" d="M18 484L92 484L92 578Q92 655 129 692Q166 729 226 729Q258 729 279 725L279 666L238 666Q194 666 177.5 644.5Q161 623 161 578L161 484L275 484L275 426L161 426L161 0L92 0L92 426L18 426Z"/><path transform="translate(57.122 44.906) scale(0.003000 -0.003000)" d="M325 490L325 428L287 428Q220 428 180.5 386.5Q141 345 141 276L141 0L72 0L72 484L137 484L142 409Q156 449 193 472Q230 495 280 495Q304 495 325 490Z"/></g>
  <g fill="#2E7452"><path transform="translate(10.897 44.906) scale(0.002500 -0.002500)" d="M384 -11Q229 -11 135 91Q41 193 41 361Q41 528 137.5 631.5Q234 735 389 735Q511 735 597.5 668Q684 601 704 490L599 490Q579 560 522 600.5Q465 641 386 641Q276 641 210 565Q144 489 144 362Q144 235 210 159Q276 83 386 83Q465 83 524 122.5Q583 162 603 229L707 229Q684 121 595 55Q506 -11 384 -11Z"/><path transform="translate(13.055 44.906) scale(0.002500 -0.002500)" d="M639 631.5Q639 631.5 687.5 579.25Q736 527 736 362Q736 197 638.5 92.5Q541 -12 387 -12Q234 -12 137.5 92.5Q41 197 41 362Q41 526 138 631Q235 736 388 736Q542 736 639 631.5ZM633 362Q633 488 565.5 564.5Q498 641 388 641Q278 641 211 564.5Q144 488 144 362Q144 236 211 159Q278 82 388 82Q498 82 565.5 159.5Q633 237 633 362Z"/><path transform="translate(15.297 44.906) scale(0.002500 -0.002500)" d="M79 257L79 723L177 723L177 263Q177 176 223.5 129.5Q270 83 356 83Q441 83 487 130Q533 177 533 263L533 723L632 723L632 257Q632 133 558 60.5Q484 -12 356 -12Q228 -12 153.5 60Q79 132 79 257Z"/><path transform="translate(17.375 44.906) scale(0.002500 -0.002500)" d="M182 0L84 0L84 723L357 723Q473 723 538.5 665Q604 607 604 506Q604 431 567.5 379Q531 327 464 305L611 0L502 0L367 286L182 286ZM182 635L182 373L358 373Q426 373 463.5 408Q501 443 501 505Q501 568 463 601.5Q425 635 357 635Z"/><path transform="translate(19.309 44.906) scale(0.002500 -0.002500)" d="M182 0L84 0L84 723L357 723Q473 723 538.5 665Q604 607 604 506Q604 431 567.5 379Q531 327 464 305L611 0L502 0L367 286L182 286ZM182 635L182 373L358 373Q426 373 463.5 408Q501 443 501 505Q501 568 463 601.5Q425 635 357 635Z"/><path transform="translate(21.245 44.906) scale(0.002500 -0.002500)" d="M182 723L182 0L84 0L84 723Z"/><path transform="translate(22.212 44.906) scale(0.002500 -0.002500)" d="M525 0L84 0L84 723L525 723L525 633L182 633L182 407L491 407L491 320L182 320L182 91L525 91Z"/><path transform="translate(23.970 44.906) scale(0.002500 -0.002500)" d="M182 723L182 91L500 91L500 0L84 0L84 723Z"/></g>
  <g fill="#12160F"><path transform="translate(31.886 49.964) scale(0.003000 -0.003000)" d="M101.5 57.5Q101.5 57.5 69.75 92.25Q38 127 38 241Q38 355 102.5 426Q167 497 272 497Q356 497 413.5 452Q471 407 485 332L416 332Q403 381 364 408.5Q325 436 273 436Q199 436 152.5 383Q106 330 106 242Q106 156 150.5 103Q195 50 268 50Q322 50 362.5 77.5Q403 105 417 152L487 152Q470 78 410 33Q350 -12 268 -12Q165 -12 101.5 57.5Z"/><path transform="translate(33.446 49.964) scale(0.003000 -0.003000)" d="M211 -12Q135 -12 91 27Q47 66 47 131Q47 197 95 237.5Q143 278 228 285L388 298L388 314Q388 439 260 439Q197 439 161.5 412Q126 385 126 336L63 336Q63 409 117.5 453Q172 497 262 497Q350 497 403 451Q456 405 456 313L456 0L398 0L389 85Q366 39 319 13.5Q272 -12 211 -12ZM227 44Q302 44 345 92Q388 140 388 220L388 246L245 235Q117 224 117 133Q117 90 146.5 67Q176 44 227 44Z"/><path transform="translate(35.012 49.964) scale(0.003000 -0.003000)" d="M275 -12Q169 -12 103.5 58Q38 128 38 242Q38 355 102.5 426Q167 497 270 497Q368 497 429 433.5Q490 370 490 267L490 233L105 233Q109 144 153.5 95.5Q198 47 276 47Q396 47 424 145L490 145Q470 68 415 28Q360 -12 275 -12ZM379.5 395.5Q379.5 395.5 358.75 416.75Q338 438 270 438Q202 438 159 396.5Q116 355 107 283L421 283Q421 353 379.5 395.5Z"/><path transform="translate(36.596 49.964) scale(0.003000 -0.003000)" d="M144 0L75 0L75 729L144 729Z"/><path transform="translate(37.253 49.964) scale(0.003000 -0.003000)" d="M275 -12Q169 -12 103.5 58Q38 128 38 242Q38 355 102.5 426Q167 497 270 497Q368 497 429 433.5Q490 370 490 267L490 233L105 233Q109 144 153.5 95.5Q198 47 276 47Q396 47 424 145L490 145Q470 68 415 28Q360 -12 275 -12ZM379.5 395.5Q379.5 395.5 358.75 416.75Q338 438 270 438Q202 438 159 396.5Q116 355 107 283L421 283Q421 353 379.5 395.5Z"/><path transform="translate(38.837 49.964) scale(0.003000 -0.003000)" d="M31 136L97 136Q97 94 126.5 69.5Q156 45 207 45Q263 45 294.5 67.5Q326 90 326 129Q326 160 308.5 178Q291 196 249 206L166 227Q41 258 41 358Q41 421 89 459Q137 497 216 497Q293 497 339 457.5Q385 418 387 351L320 351Q318 393 290.5 416.5Q263 440 214 440Q163 440 135.5 419Q108 398 108 359Q108 302 187 283L270 262Q333 246 362.5 215Q392 184 392 132Q392 67 341.5 27.5Q291 -12 208 -12Q126 -12 78.5 28Q31 68 31 136Z"/><path transform="translate(40.139 49.964) scale(0.003000 -0.003000)" d="M183 0L115 0L115 426L18 426L18 484L115 484L115 637L183 637L183 484L280 484L280 426L183 426Z"/><path transform="translate(41.033 49.964) scale(0.003000 -0.003000)" d="M142.5 632Q142.5 632 134.75 624.5Q127 617 106 617Q85 617 70 632Q55 647 55 668Q55 689 70 704.5Q85 720 106 720Q127 720 142.5 704.5Q158 689 158 668Q158 647 142.5 632ZM72 0L72 484L141 484L141 0Z"/><path transform="translate(41.672 49.964) scale(0.003000 -0.003000)" d="M31 136L97 136Q97 94 126.5 69.5Q156 45 207 45Q263 45 294.5 67.5Q326 90 326 129Q326 160 308.5 178Q291 196 249 206L166 227Q41 258 41 358Q41 421 89 459Q137 497 216 497Q293 497 339 457.5Q385 418 387 351L320 351Q318 393 290.5 416.5Q263 440 214 440Q163 440 135.5 419Q108 398 108 359Q108 302 187 283L270 262Q333 246 362.5 215Q392 184 392 132Q392 67 341.5 27.5Q291 -12 208 -12Q126 -12 78.5 28Q31 68 31 136Z"/><path transform="translate(42.950 49.964) scale(0.003000 -0.003000)" d="M175.5 7Q175.5 7 166.25 -2Q157 -11 131 -11Q105 -11 86.5 7Q68 25 68 50Q68 76 87 94.5Q106 113 131 113Q156 113 175 94.5Q194 76 194 50Q194 25 175.5 7Z"/><path transform="translate(43.670 49.964) scale(0.003000 -0.003000)" d="M18 484L92 484L92 578Q92 655 129 692Q166 729 226 729Q258 729 279 725L279 666L238 666Q194 666 177.5 644.5Q161 623 161 578L161 484L275 484L275 426L161 426L161 0L92 0L92 426L18 426Z"/><path transform="translate(44.561 49.964) scale(0.003000 -0.003000)" d="M325 490L325 428L287 428Q220 428 180.5 386.5Q141 345 141 276L141 0L72 0L72 484L137 484L142 409Q156 449 193 472Q230 495 280 495Q304 495 325 490Z"/></g>
  <g fill="#2E7452"><path transform="translate(10.920 49.964) scale(0.002500 -0.002500)" d="M42 528Q42 621 110.5 678.5Q179 736 291 736Q394 736 457 682Q520 628 526 534L427 534Q423 588 387 618Q351 648 290 648Q222 648 181 616Q140 584 140 531Q140 446 241 422L360 394Q538 353 538 201Q538 104 468.5 46Q399 -12 283 -12Q172 -12 104 42Q36 96 32 189L132 189Q134 137 174.5 106.5Q215 76 283 76Q355 76 397.5 107.5Q440 139 440 193Q440 279 340 302L221 329Q42 370 42 528Z"/><path transform="translate(12.662 49.964) scale(0.002500 -0.002500)" d="M182 723L182 0L84 0L84 723Z"/><path transform="translate(13.630 49.964) scale(0.002500 -0.002500)" d="M14 633L14 723L547 723L547 633L330 633L330 0L232 0L232 633Z"/><path transform="translate(15.335 49.964) scale(0.002500 -0.002500)" d="M525 0L84 0L84 723L525 723L525 633L182 633L182 407L491 407L491 320L182 320L182 91L525 91Z"/></g>
</svg>
