<svg xmlns="http://www.w3.org/2000/svg" width="91mm" height="61mm" viewBox="0 0 91 61">
  <rect width="91" height="61" fill="#E3EFE8"/>
  <g transform="translate(38.6035 17.6703) scale(0.137931)"><path d="M12 15A7 7 0 0 1 19 8L81 8A7 7 0 0 1 88 15L88 49A7 7 0 0 1 81 56L19 56A7 7 0 0 1 12 49Z" fill="none" stroke="#255C41" stroke-width="7.5"/><path d="M44.5 56L40.5 80L59.5 80L55.5 56Z" fill="#255C41"/><rect x="16" y="76" width="68" height="8" rx="4" fill="#255C41"/></g>
  <g fill="#2E7452"><path transform="translate(16.425 42.711) scale(0.002700 -0.002700)" d="M42 528Q42 621 110.5 678.5Q179 736 291 736Q394 736 457 682Q520 628 526 534L427 534Q423 588 387 618Q351 648 290 648Q222 648 181 616Q140 584 140 531Q140 446 241 422L360 394Q538 353 538 201Q538 104 468.5 46Q399 -12 283 -12Q172 -12 104 42Q36 96 32 189L132 189Q134 137 174.5 106.5Q215 76 283 76Q355 76 397.5 107.5Q440 139 440 193Q440 279 340 302L221 329Q42 370 42 528Z"/><path transform="translate(18.334 42.711) scale(0.002700 -0.002700)" d="M182 723L182 0L84 0L84 723Z"/><path transform="translate(19.406 42.711) scale(0.002700 -0.002700)" d="M14 633L14 723L547 723L547 633L330 633L330 0L232 0L232 633Z"/><path transform="translate(21.275 42.711) scale(0.002700 -0.002700)" d="M525 0L84 0L84 723L525 723L525 633L182 633L182 407L491 407L491 320L182 320L182 91L525 91Z"/><path transform="translate(23.200 42.711) scale(0.002700 -0.002700)" d="M42 528Q42 621 110.5 678.5Q179 736 291 736Q394 736 457 682Q520 628 526 534L427 534Q423 588 387 618Q351 648 290 648Q222 648 181 616Q140 584 140 531Q140 446 241 422L360 394Q538 353 538 201Q538 104 468.5 46Q399 -12 283 -12Q172 -12 104 42Q36 96 32 189L132 189Q134 137 174.5 106.5Q215 76 283 76Q355 76 397.5 107.5Q440 139 440 193Q440 279 340 302L221 329Q42 370 42 528Z"/><path transform="translate(26.197 42.711) scale(0.002700 -0.002700)" d="M182 723L182 0L84 0L84 723Z"/><path transform="translate(27.269 42.711) scale(0.002700 -0.002700)" d="M182 0L84 0L84 723L182 723L552 164L552 723L650 723L650 0L552 0L182 559Z"/><path transform="translate(29.602 42.711) scale(0.002700 -0.002700)" d="M14 633L14 723L547 723L547 633L330 633L330 0L232 0L232 633Z"/><path transform="translate(31.470 42.711) scale(0.002700 -0.002700)" d="M525 0L84 0L84 723L525 723L525 633L182 633L182 407L491 407L491 320L182 320L182 91L525 91Z"/><path transform="translate(33.395 42.711) scale(0.002700 -0.002700)" d="M182 0L84 0L84 723L357 723Q473 723 538.5 665Q604 607 604 506Q604 431 567.5 379Q531 327 464 305L611 0L502 0L367 286L182 286ZM182 635L182 373L358 373Q426 373 463.5 408Q501 443 501 505Q501 568 463 601.5Q425 635 357 635Z"/><path transform="translate(35.512 42.711) scale(0.002700 -0.002700)" d="M182 0L84 0L84 723L182 723L552 164L552 723L650 723L650 0L552 0L182 559Z"/><path transform="translate(37.845 42.711) scale(0.002700 -0.002700)" d="M525 0L84 0L84 723L525 723L525 633L182 633L182 407L491 407L491 320L182 320L182 91L525 91Z"/><path transform="translate(39.770 42.711) scale(0.002700 -0.002700)" d="M14 633L14 723L547 723L547 633L330 633L330 0L232 0L232 633Z"/><path transform="translate(42.726 42.711) scale(0.002700 -0.002700)" d="M525 0L84 0L84 723L525 723L525 633L182 633L182 407L491 407L491 320L182 320L182 91L525 91Z"/><path transform="translate(44.651 42.711) scale(0.002700 -0.002700)" d="M14 633L14 723L547 723L547 633L330 633L330 0L232 0L232 633Z"/><path transform="translate(47.608 42.711) scale(0.002700 -0.002700)" d="M182 0L84 0L84 723L357 723Q473 723 538.5 665Q604 607 604 506Q604 431 567.5 379Q531 327 464 305L611 0L502 0L367 286L182 286ZM182 635L182 373L358 373Q426 373 463.5 408Q501 443 501 505Q501 568 463 601.5Q425 635 357 635Z"/><path transform="translate(49.725 42.711) scale(0.002700 -0.002700)" d="M425 909L338 776L266 776L333 909ZM525 0L84 0L84 723L525 723L525 633L182 633L182 407L491 407L491 320L182 320L182 91L525 91Z"/><path transform="translate(51.650 42.711) scale(0.002700 -0.002700)" d="M466 307L182 307L182 0L84 0L84 723L520 723L520 633L182 633L182 396L466 396Z"/><path transform="translate(53.499 42.711) scale(0.002700 -0.002700)" d="M425 909L338 776L266 776L333 909ZM525 0L84 0L84 723L525 723L525 633L182 633L182 407L491 407L491 320L182 320L182 91L525 91Z"/><path transform="translate(55.424 42.711) scale(0.002700 -0.002700)" d="M182 0L84 0L84 723L357 723Q473 723 538.5 665Q604 607 604 506Q604 431 567.5 379Q531 327 464 305L611 0L502 0L367 286L182 286ZM182 635L182 373L358 373Q426 373 463.5 408Q501 443 501 505Q501 568 463 601.5Q425 635 357 635Z"/><path transform="translate(57.541 42.711) scale(0.002700 -0.002700)" d="M525 0L84 0L84 723L525 723L525 633L182 633L182 407L491 407L491 320L182 320L182 91L525 91Z"/><path transform="translate(59.466 42.711) scale(0.002700 -0.002700)" d="M182 0L84 0L84 723L182 723L552 164L552 723L650 723L650 0L552 0L182 559Z"/><path transform="translate(61.799 42.711) scale(0.002700 -0.002700)" d="M384 -11Q229 -11 135 91Q41 193 41 361Q41 528 137.5 631.5Q234 735 389 735Q511 735 597.5 668Q684 601 704 490L599 490Q579 560 522 600.5Q465 641 386 641Q276 641 210 565Q144 489 144 362Q144 235 210 159Q276 83 386 83Q465 83 524 122.5Q583 162 603 229L707 229Q684 121 595 55Q506 -11 384 -11Z"/><path transform="translate(64.156 42.711) scale(0.002700 -0.002700)" d="M525 0L84 0L84 723L525 723L525 633L182 633L182 407L491 407L491 320L182 320L182 91L525 91Z"/><path transform="translate(66.081 42.711) scale(0.002700 -0.002700)" d="M180 0L84 0L84 723L180 723L429 115L678 723L776 723L776 0L680 0L680 286Q680 460 686 521L475 0L383 0L173 519Q180 470 180 309Z"/><path transform="translate(68.754 42.711) scale(0.002700 -0.002700)" d="M525 0L84 0L84 723L525 723L525 633L182 633L182 407L491 407L491 320L182 320L182 91L525 91Z"/><path transform="translate(70.679 42.711) scale(0.002700 -0.002700)" d="M182 0L84 0L84 723L182 723L552 164L552 723L650 723L650 0L552 0L182 559Z"/><path transform="translate(73.012 42.711) scale(0.002700 -0.002700)" d="M14 633L14 723L547 723L547 633L330 633L330 0L232 0L232 633Z"/></g>
</svg>
